<svg width="34" height="26" viewBox="0 0 34 26" fill="none" xmlns="http://www.w3.org/2000/svg">
<path d="M1.8091 0.00860978C1.24643 0.0986373 0.742566 0.408498 0.408356 0.870026C0.0741462 1.33155 -0.0630341 1.90694 0.0269934 2.46962C0.117021 3.03229 0.426882 3.53615 0.88841 3.87036C1.34994 4.20457 1.92533 4.34175 2.488 4.25172H8.85267L9.23455 5.3125L10.9742 10.6164L12.7139 15.9203C12.8836 16.4719 13.605 16.9811 14.1566 16.9811H29.0075C29.6015 16.9811 30.2804 16.4719 30.4501 15.9203L33.887 5.3125C34.0568 4.7609 33.8022 4.25172 33.2081 4.25172H14.3687L12.7563 1.19668C12.5846 0.846028 12.3194 0.549567 11.99 0.339944C11.6606 0.130321 11.2798 0.0156683 10.8894 0.00860978L2.40314 0.00860978C2.2761 -0.00286993 2.14829 -0.00286993 2.02126 0.00860978C1.93647 0.00351345 1.85146 0.00351345 1.76667 0.00860978L1.8091 0.00860978ZM15.2173 21.2242C14.0293 21.2242 13.0958 22.1577 13.0958 23.3457C13.0958 24.5338 14.0293 25.4673 15.2173 25.4673C16.4054 25.4673 17.3389 24.5338 17.3389 23.3457C17.3389 22.1577 16.4054 21.2242 15.2173 21.2242ZM27.9467 21.2242C26.7586 21.2242 25.8251 22.1577 25.8251 23.3457C25.8251 24.5338 26.7586 25.4673 27.9467 25.4673C29.1348 25.4673 30.0682 24.5338 30.0682 23.3457C30.0682 22.1577 29.1348 21.2242 27.9467 21.2242Z" fill="#A4A4A4"/>
</svg>
